<svg width="18" height="19" viewBox="0 0 18 19" fill="none" xmlns="http://www.w3.org/2000/svg">
<path d="M12 6.5C12 7.29565 11.6839 8.05871 11.1213 8.62132C10.5587 9.18393 9.79565 9.5 9 9.5C8.20435 9.5 7.44129 9.18393 6.87868 8.62132C6.31607 8.05871 6 7.29565 6 6.5M12 6.5H6M12 6.5C12 5.70435 11.6839 4.94129 11.1213 4.37868C10.5587 3.81607 9.79565 3.5 9 3.5M6 6.5C6 5.70435 6.31607 4.94129 6.87868 4.37868C7.44129 3.81607 8.20435 3.5 9 3.5M9 3.5V2M4.5 6.5H13.5M6.75 13.25V14.75M11.25 13.25V14.75M9 10.625C5.47913 10.625 2.625 13.3111 2.625 16.625H15.375C15.375 13.3111 12.5209 10.625 9 10.625Z" stroke="#2C2D2E" stroke-linecap="round" stroke-linejoin="round"/>
</svg>
