<svg width="24" height="24" viewBox="0 0 24 24" fill="none" xmlns="http://www.w3.org/2000/svg">
<path fill-rule="evenodd" clip-rule="evenodd" d="M22.295 6.31001C22.3857 6.3488 22.4678 6.40509 22.5367 6.47566C22.6056 6.54623 22.6599 6.6297 22.6965 6.72129C22.7331 6.81288 22.7513 6.91078 22.75 7.0094C22.7487 7.10802 22.728 7.20542 22.689 7.29602L22 7.00001L22.69 7.29602L22.688 7.30002L22.685 7.30702L22.675 7.33101L22.636 7.41501C22.4176 7.86809 22.1749 8.30906 21.909 8.73602C21.3759 9.59414 20.7574 10.3962 20.063 11.13L21.031 12.099C21.1635 12.2412 21.2356 12.4292 21.2322 12.6235C21.2287 12.8178 21.15 13.0032 21.0126 13.1406C20.8752 13.278 20.6898 13.3568 20.4955 13.3602C20.3012 13.3636 20.1132 13.2915 19.971 13.159L18.97 12.159C18.2734 12.7455 17.5101 13.248 16.696 13.656L17.63 15.091C17.7385 15.2578 17.7762 15.4609 17.735 15.6556C17.6937 15.8502 17.5768 16.0205 17.41 16.129C17.2432 16.2375 17.0401 16.2752 16.8454 16.234C16.6508 16.1927 16.4805 16.0758 16.372 15.909L15.283 14.235C14.503 14.49 13.66 14.663 12.751 14.725V16.5C12.751 16.6989 12.672 16.8897 12.5313 17.0303C12.3907 17.171 12.1999 17.25 12.001 17.25C11.8021 17.25 11.6113 17.171 11.4707 17.0303C11.33 16.8897 11.251 16.6989 11.251 16.5V14.725C10.4153 14.6684 9.58948 14.5119 8.791 14.259L7.717 15.909C7.66329 15.9916 7.59383 16.0628 7.5126 16.1186C7.43137 16.1743 7.33995 16.2136 7.24356 16.234C7.14717 16.2544 7.04771 16.2557 6.95084 16.2377C6.85397 16.2196 6.7616 16.1827 6.679 16.129C6.51218 16.0205 6.39528 15.8502 6.35402 15.6556C6.33359 15.5592 6.33235 15.4597 6.35036 15.3629C6.36837 15.266 6.40529 15.1736 6.459 15.091L7.372 13.689C6.55112 13.2853 5.78135 12.7851 5.079 12.199L4.119 13.159C3.97761 13.2957 3.78819 13.3714 3.59154 13.3698C3.39489 13.3682 3.20675 13.2894 3.06762 13.1504C2.9285 13.0114 2.84954 12.8233 2.84774 12.6267C2.84594 12.43 2.92144 12.2405 3.058 12.099L3.982 11.175C2.99967 10.1462 2.16868 8.98288 1.514 7.72001C1.44855 7.59205 1.38587 7.46268 1.326 7.33201L1.316 7.30702L1.312 7.30002V7.29701H1.31C1.23149 7.11415 1.22885 6.90659 1.30264 6.72177C1.37644 6.53695 1.52063 6.38902 1.7035 6.31052C1.88636 6.23201 2.09293 6.22937 2.27774 6.30316C2.46256 6.37696 2.61049 6.52115 2.689 6.70401V6.70601L2.696 6.72001L2.725 6.78301C2.75166 6.84035 2.79333 6.92535 2.85 7.03802C3.54232 8.37743 4.45737 9.58937 5.556 10.622C6.422 11.427 7.483 12.168 8.752 12.656C9.78877 13.0526 10.89 13.254 12 13.25C13.1331 13.254 14.2568 13.044 15.312 12.631C16.574 12.134 17.628 11.388 18.487 10.582C19.6355 9.49151 20.58 8.20463 21.276 6.78202L21.304 6.71901L21.31 6.70601M22.295 6.31001C22.1122 6.23191 21.906 6.23054 21.7215 6.30441C21.537 6.37829 21.3893 6.52237 21.311 6.70501L22.295 6.31001Z" fill="#2C2D2E"/>
</svg>
