<svg width="16" height="16" viewBox="0 0 16 16" fill="none" xmlns="http://www.w3.org/2000/svg">
<path d="M8 10V1.33337M8 1.33337L10 3.66671M8 1.33337L6 3.66671" stroke="#919399" stroke-linecap="round" stroke-linejoin="round"/>
<path d="M5.33325 14.6667H10.6666C12.5519 14.6667 13.4953 14.6667 14.0806 14.0813C14.6666 13.4947 14.6666 12.5527 14.6666 10.6667V10C14.6666 8.11468 14.6666 7.17201 14.0806 6.58601C13.5686 6.07401 12.7833 6.00934 11.3333 6.00134M4.66659 6.00134C3.21659 6.00934 2.43125 6.07401 1.91925 6.58601C1.33325 7.17201 1.33325 8.11468 1.33325 10V10.6667C1.33325 12.5527 1.33325 13.4953 1.91925 14.0813C2.11925 14.2813 2.36059 14.4127 2.66659 14.4993" stroke="#919399" stroke-linecap="round"/>
</svg>
