<svg width="18" height="18" viewBox="0 0 18 18" fill="none" xmlns="http://www.w3.org/2000/svg">
<path d="M3.375 4.5V7.69875C3.375 10.08 3.375 11.271 4.10775 12.0105C4.83975 12.75 6.018 12.75 8.37525 12.75H9.6255C11.982 12.75 13.1603 12.75 13.893 12.0105C14.625 11.2702 14.625 10.08 14.625 7.69875V4.5M3.375 4.5H14.625M3.375 4.5L3.91575 3.3465C4.33575 2.451 4.54575 2.004 4.97025 1.752C5.3955 1.5 5.94 1.5 7.03125 1.5H10.9688C12.0592 1.5 12.6045 1.5 13.0297 1.752C13.455 2.004 13.665 2.451 14.0842 3.3465L14.625 4.5M7.875 6.75H10.125M9 14.625V16.5M9 14.625H5.25M9 14.625H12.75M5.25 14.625H3.375C2.87772 14.625 2.40081 14.8225 2.04917 15.1742C1.69754 15.5258 1.5 16.0027 1.5 16.5M5.25 14.625V16.5M12.75 14.625H14.625C15.1223 14.625 15.5992 14.8225 15.9508 15.1742C16.3025 15.5258 16.5 16.0027 16.5 16.5M12.75 14.625V16.5" stroke="#919399" stroke-linecap="round" stroke-linejoin="round"/>
</svg>
