<svg width="24" height="24" viewBox="0 0 24 24" fill="none" xmlns="http://www.w3.org/2000/svg">
<path d="M14 4C14 4.53043 13.7893 5.03914 13.4142 5.41421C13.0391 5.78929 12.5304 6 12 6C11.4696 6 10.9609 5.78929 10.5858 5.41421C10.2107 5.03914 10 4.53043 10 4C10 3.46957 10.2107 2.96086 10.5858 2.58579C10.9609 2.21071 11.4696 2 12 2C12.5304 2 13.0391 2.21071 13.4142 2.58579C13.7893 2.96086 14 3.46957 14 4Z" stroke="white"/>
<path d="M12 15L12.651 14.628C12.5854 14.5133 12.4906 14.418 12.3763 14.3516C12.262 14.2853 12.1322 14.2504 12 14.2504C11.8678 14.2504 11.738 14.2853 11.6237 14.3516C11.5094 14.418 11.4146 14.5133 11.349 14.628L12 15ZM5.81 11.56L7.986 12.286L8.459 10.863L6.285 10.137L5.81 11.56ZM8.316 12.987L7.07 16.228L8.47 16.767L9.717 13.525L8.316 12.987ZM17.715 10.137L15.539 10.863L16.014 12.286L18.188 11.56L17.715 10.137ZM14.282 13.525L15.53 16.767L16.929 16.228L15.682 12.987L14.282 13.525ZM11.075 18.13L12.65 15.372L11.348 14.628L9.772 17.385L11.075 18.13ZM16.989 7.164L15.093 7.57L15.406 9.037L17.305 8.63L16.989 7.164ZM8.91 7.57L7.01 7.164L6.696 8.63L8.594 9.037L8.91 7.57ZM11.35 15.372L12.926 18.13L14.228 17.385L12.652 14.628L11.35 15.372ZM15.093 7.57L14.887 7.614L15.191 9.083L15.406 9.037L15.093 7.57ZM8.594 9.037L8.81 9.083L9.114 7.613L8.908 7.57L8.594 9.037ZM14.887 7.614C12.9828 8.00788 11.0182 8.00688 9.114 7.613L8.81 9.083C10.9144 9.51824 13.0856 9.51824 15.19 9.083L14.887 7.614ZM9.145 19.25C9.943 19.25 10.68 18.822 11.075 18.13L9.772 17.385C9.70907 17.496 9.61875 17.5884 9.5084 17.6525C9.39805 17.7166 9.27263 17.7503 9.145 17.75V19.25ZM15.53 16.767C15.5722 16.8766 15.5871 16.9947 15.5734 17.1114C15.5597 17.228 15.5178 17.3395 15.4514 17.4363C15.3849 17.5331 15.2959 17.6122 15.192 17.6669C15.0881 17.7215 14.9724 17.7501 14.855 17.75V19.25C15.2159 19.2501 15.5714 19.1623 15.8908 18.9942C16.2102 18.8261 16.4838 18.5828 16.6881 18.2853C16.8924 17.9878 17.0212 17.645 17.0633 17.2865C17.1055 16.9281 17.0587 16.5648 16.929 16.228L15.53 16.767ZM15.54 10.863C15.318 10.937 15.082 11.01 14.89 11.128L15.678 12.405C15.668 12.41 15.676 12.404 15.734 12.382C15.795 12.359 15.877 12.332 16.014 12.286L15.54 10.863ZM15.682 12.987C15.6456 12.8953 15.612 12.803 15.579 12.71C15.559 12.651 15.559 12.641 15.561 12.651L14.075 12.855C14.105 13.078 14.199 13.307 14.283 13.525L15.682 12.987ZM14.89 11.128C14.6015 11.306 14.3709 11.5639 14.2262 11.8705C14.0815 12.1771 14.029 12.5191 14.075 12.855L15.561 12.651C15.5546 12.6031 15.5623 12.5543 15.5831 12.5107C15.6038 12.467 15.6368 12.4303 15.678 12.405L14.89 11.128ZM18.25 9.395C18.2503 9.55926 18.1988 9.71942 18.1027 9.85266C18.0066 9.98589 17.8709 10.0854 17.715 10.137L18.188 11.56C18.6427 11.4089 19.0392 11.1184 19.3194 10.7298C19.5996 10.3412 19.7503 9.87412 19.75 9.395H18.25ZM7.07 16.228C6.94028 16.5648 6.89451 16.9281 6.93665 17.2865C6.97879 17.645 7.10757 17.9878 7.31186 18.2853C7.51615 18.5828 7.78981 18.8261 8.1092 18.9942C8.42858 19.1623 8.78409 19.2501 9.145 19.25V17.75C9.02759 17.7501 8.91193 17.7215 8.80802 17.6669C8.70411 17.6122 8.61508 17.5331 8.54862 17.4363C8.48216 17.3395 8.44027 17.228 8.42657 17.1114C8.41287 16.9947 8.42778 16.8766 8.47 16.767L7.07 16.228ZM7.986 12.286C8.123 12.331 8.205 12.359 8.266 12.382C8.324 12.404 8.331 12.41 8.322 12.405L9.11 11.128C8.918 11.01 8.682 10.937 8.46 10.863L7.986 12.286ZM9.716 13.526C9.801 13.306 9.894 13.078 9.925 12.855L8.439 12.651C8.44 12.641 8.44 12.651 8.421 12.71C8.38804 12.803 8.35337 12.8953 8.317 12.987L9.716 13.526ZM8.322 12.405C8.3632 12.4303 8.39618 12.467 8.41695 12.5107C8.43771 12.5543 8.44537 12.6031 8.439 12.651L9.925 12.855C9.97103 12.5191 9.91851 12.1771 9.77383 11.8705C9.62914 11.5639 9.39853 11.306 9.11 11.128L8.322 12.405ZM4.25 9.395C4.25 10.378 4.879 11.25 5.81 11.56L6.285 10.137C6.12905 10.0854 5.99338 9.98589 5.89731 9.85266C5.80124 9.71942 5.74969 9.55926 5.75 9.395H4.25ZM5.75 9.395C5.75 8.897 6.21 8.525 6.696 8.63L7.01 7.164C6.67726 7.09256 6.33375 7.09645 6.00271 7.17539C5.67166 7.25433 5.36247 7.40631 5.09776 7.6202C4.83305 7.83409 4.61954 8.10449 4.47285 8.41157C4.32617 8.71866 4.25002 9.05467 4.25 9.395H5.75ZM12.926 18.13C13.1202 18.4704 13.4001 18.7534 13.7391 18.9501C14.078 19.1468 14.4631 19.2503 14.855 19.25V17.75C14.595 17.75 14.356 17.61 14.228 17.385L12.926 18.13ZM19.75 9.395C19.7499 9.05478 19.6738 8.71888 19.5272 8.41188C19.3806 8.10487 19.1671 7.83454 18.9026 7.62067C18.638 7.40679 18.3289 7.25479 17.998 7.17577C17.6671 7.09676 17.3217 7.09273 16.989 7.164L17.305 8.63C17.4191 8.60553 17.5361 8.6069 17.6496 8.63398C17.7631 8.66107 17.869 8.7132 17.9597 8.78655C18.0504 8.85989 18.1236 8.95261 18.1738 9.05789C18.224 9.16317 18.2501 9.27835 18.25 9.395H19.75Z" fill="white"/>
<path d="M19.454 14.5C21.037 15.296 22 16.348 22 17.5C22 19.985 17.523 22 12 22C6.477 22 2 19.985 2 17.5C2 16.348 2.963 15.296 4.546 14.5" stroke="white" stroke-linecap="round"/>
</svg>
