<svg width="16" height="16" viewBox="0 0 16 16" fill="none" xmlns="http://www.w3.org/2000/svg">
<path d="M9.33317 2.66668C9.33317 3.0203 9.19269 3.35944 8.94265 3.60949C8.6926 3.85953 8.35346 4.00001 7.99984 4.00001C7.64622 4.00001 7.30708 3.85953 7.05703 3.60949C6.80698 3.35944 6.6665 3.0203 6.6665 2.66668C6.6665 2.31305 6.80698 1.97392 7.05703 1.72387C7.30708 1.47382 7.64622 1.33334 7.99984 1.33334C8.35346 1.33334 8.6926 1.47382 8.94265 1.72387C9.19269 1.97392 9.33317 2.31305 9.33317 2.66668Z" stroke="#2C2D2E"/>
<path d="M7.99992 10L8.43392 9.75202C8.39017 9.67554 8.32699 9.61199 8.25078 9.56778C8.17456 9.52358 8.08802 9.5003 7.99992 9.5003C7.91181 9.5003 7.82527 9.52358 7.74906 9.56778C7.67285 9.61199 7.60967 9.67554 7.56592 9.75202L7.99992 10ZM3.87325 7.70669L5.32392 8.19069L5.63925 7.24202L4.18992 6.75802L3.87325 7.70669ZM5.54392 8.65802L4.71325 10.8187L5.64659 11.178L6.47792 9.01669L5.54392 8.65802ZM11.8099 6.75802L10.3593 7.24202L10.6759 8.19069L12.1253 7.70669L11.8099 6.75802ZM9.52125 9.01669L10.3533 11.178L11.2859 10.8187L10.4546 8.65802L9.52125 9.01669ZM7.38325 12.0867L8.43325 10.248L7.56525 9.75202L6.51459 11.59L7.38325 12.0867ZM11.3259 4.77602L10.0619 5.04669L10.2706 6.02469L11.5366 5.75335L11.3259 4.77602ZM5.93992 5.04669L4.67325 4.77602L4.46392 5.75335L5.72925 6.02469L5.93992 5.04669ZM7.56659 10.248L8.61725 12.0867L9.48525 11.59L8.43459 9.75202L7.56659 10.248ZM10.0619 5.04669L9.92459 5.07602L10.1273 6.05535L10.2706 6.02469L10.0619 5.04669ZM5.72925 6.02469L5.87325 6.05535L6.07592 5.07535L5.93859 5.04669L5.72925 6.02469ZM9.92459 5.07602C8.65513 5.3386 7.34537 5.33794 6.07592 5.07535L5.87325 6.05535C7.27618 6.34552 8.72365 6.34552 10.1266 6.05535L9.92459 5.07602ZM6.09659 12.8334C6.62859 12.8334 7.11992 12.548 7.38325 12.0867L6.51459 11.59C6.47263 11.664 6.41242 11.7256 6.33885 11.7684C6.26529 11.8111 6.18168 11.8335 6.09659 11.8334V12.8334ZM10.3533 11.178C10.3814 11.2511 10.3913 11.3298 10.3822 11.4076C10.3731 11.4853 10.3451 11.5597 10.3008 11.6242C10.2565 11.6887 10.1972 11.7415 10.1279 11.7779C10.0586 11.8144 9.98152 11.8334 9.90325 11.8334V12.8334C10.1439 12.8334 10.3809 12.7749 10.5938 12.6628C10.8067 12.5508 10.9892 12.3886 11.1253 12.1902C11.2615 11.9919 11.3474 11.7633 11.3755 11.5244C11.4036 11.2854 11.3724 11.0432 11.2859 10.8187L10.3533 11.178ZM10.3599 7.24202C10.2119 7.29135 10.0546 7.34002 9.92659 7.41869L10.4519 8.27002C10.4453 8.27335 10.4506 8.26935 10.4893 8.25469C10.5299 8.23935 10.5846 8.22135 10.6759 8.19069L10.3599 7.24202ZM10.4546 8.65802C10.4303 8.5969 10.4079 8.53533 10.3859 8.47335C10.3726 8.43402 10.3726 8.42735 10.3739 8.43402L9.38325 8.57002C9.40325 8.71869 9.46592 8.87135 9.52192 9.01669L10.4546 8.65802ZM9.92659 7.41869C9.73423 7.53734 9.58049 7.70932 9.48403 7.91371C9.38758 8.1181 9.35257 8.3461 9.38325 8.57002L10.3739 8.43402C10.3697 8.40207 10.3748 8.36957 10.3886 8.34046C10.4025 8.31135 10.4245 8.28688 10.4519 8.27002L9.92659 7.41869ZM12.1666 6.26335C12.1668 6.37286 12.1324 6.47963 12.0684 6.56846C12.0043 6.65728 11.9139 6.72362 11.8099 6.75802L12.1253 7.70669C12.4284 7.60596 12.6927 7.4123 12.8795 7.15321C13.0663 6.89412 13.1668 6.58277 13.1666 6.26335H12.1666ZM4.71325 10.8187C4.62677 11.0432 4.59626 11.2854 4.62435 11.5244C4.65244 11.7633 4.7383 11.9919 4.87449 12.1902C5.01068 12.3886 5.19313 12.5508 5.40605 12.6628C5.61897 12.7749 5.85598 12.8334 6.09659 12.8334V11.8334C6.01831 11.8334 5.94121 11.8144 5.87193 11.7779C5.80266 11.7415 5.74331 11.6887 5.699 11.6242C5.65469 11.5597 5.62676 11.4853 5.61763 11.4076C5.6085 11.3298 5.61844 11.2511 5.64659 11.178L4.71325 10.8187ZM5.32392 8.19069C5.41525 8.22069 5.46992 8.23935 5.51059 8.25469C5.54925 8.26935 5.55392 8.27335 5.54792 8.27002L6.07325 7.41869C5.94525 7.34002 5.78792 7.29135 5.63992 7.24202L5.32392 8.19069ZM6.47725 9.01735C6.53392 8.87069 6.59592 8.71869 6.61659 8.57002L5.62592 8.43402C5.62659 8.42735 5.62659 8.43402 5.61392 8.47335C5.59195 8.53533 5.56883 8.5969 5.54459 8.65802L6.47725 9.01735ZM5.54792 8.27002C5.57539 8.28688 5.59737 8.31135 5.61122 8.34046C5.62506 8.36957 5.63017 8.40207 5.62592 8.43402L6.61659 8.57002C6.64727 8.3461 6.61226 8.1181 6.5158 7.91371C6.41935 7.70932 6.2656 7.53734 6.07325 7.41869L5.54792 8.27002ZM2.83325 6.26335C2.83325 6.91869 3.25259 7.50002 3.87325 7.70669L4.18992 6.75802C4.08595 6.72362 3.9955 6.65728 3.93146 6.56846C3.86741 6.47963 3.83304 6.37286 3.83325 6.26335H2.83325ZM3.83325 6.26335C3.83325 5.93135 4.13992 5.68335 4.46392 5.75335L4.67325 4.77602C4.45142 4.7284 4.22242 4.73099 4.00172 4.78361C3.78103 4.83624 3.5749 4.93756 3.39843 5.08015C3.22195 5.22275 3.07961 5.40301 2.98182 5.60774C2.88403 5.81246 2.83327 6.03647 2.83325 6.26335H3.83325ZM8.61725 12.0867C8.74672 12.3136 8.9333 12.5023 9.15929 12.6334C9.38528 12.7646 9.64196 12.8336 9.90325 12.8334V11.8334C9.72992 11.8334 9.57059 11.74 9.48525 11.59L8.61725 12.0867ZM13.1666 6.26335C13.1665 6.03654 13.1158 5.8126 13.018 5.60794C12.9203 5.40327 12.778 5.22305 12.6016 5.08047C12.4252 4.93788 12.2192 4.83654 11.9986 4.78387C11.778 4.73119 11.5477 4.72851 11.3259 4.77602L11.5366 5.75335C11.6126 5.73704 11.6907 5.73795 11.7663 5.75601C11.842 5.77407 11.9126 5.80882 11.9731 5.85772C12.0335 5.90662 12.0823 5.96842 12.1158 6.03861C12.1493 6.1088 12.1666 6.18559 12.1666 6.26335H13.1666Z" fill="#2C2D2E"/>
<path d="M12.9693 9.66669C14.0246 10.1974 14.6666 10.8987 14.6666 11.6667C14.6666 13.3234 11.6819 14.6667 7.99992 14.6667C4.31792 14.6667 1.33325 13.3234 1.33325 11.6667C1.33325 10.8987 1.97525 10.1974 3.03059 9.66669" stroke="#2C2D2E" stroke-linecap="round"/>
</svg>
