<svg width="18" height="18" viewBox="0 0 18 18" fill="none" xmlns="http://www.w3.org/2000/svg">
<path d="M10.5 3C10.5 3.39782 10.342 3.77936 10.0607 4.06066C9.77936 4.34196 9.39782 4.5 9 4.5C8.60218 4.5 8.22064 4.34196 7.93934 4.06066C7.65804 3.77936 7.5 3.39782 7.5 3C7.5 2.60218 7.65804 2.22064 7.93934 1.93934C8.22064 1.65804 8.60218 1.5 9 1.5C9.39782 1.5 9.77936 1.65804 10.0607 1.93934C10.342 2.22064 10.5 2.60218 10.5 3Z" stroke="#919399"/>
<path d="M9 11.25L9.48825 10.971C9.43903 10.8849 9.36795 10.8134 9.28222 10.7637C9.19648 10.714 9.09912 10.6878 9 10.6878C8.90088 10.6878 8.80352 10.714 8.71778 10.7637C8.63205 10.8134 8.56097 10.8849 8.51175 10.971L9 11.25ZM4.3575 8.66997L5.9895 9.21447L6.34425 8.14722L4.71375 7.60272L4.3575 8.66997ZM6.237 9.74022L5.3025 12.171L6.3525 12.5752L7.28775 10.1437L6.237 9.74022ZM13.2863 7.60272L11.6542 8.14722L12.0105 9.21447L13.641 8.66997L13.2863 7.60272ZM10.7115 10.1437L11.6475 12.5752L12.6968 12.171L11.7615 9.74022L10.7115 10.1437ZM8.30625 13.5975L9.4875 11.529L8.511 10.971L7.329 13.0387L8.30625 13.5975ZM12.7418 5.37297L11.3197 5.67747L11.5545 6.77772L12.9788 6.47247L12.7418 5.37297ZM6.6825 5.67747L5.2575 5.37297L5.022 6.47247L6.4455 6.77772L6.6825 5.67747ZM8.5125 11.529L9.6945 13.5975L10.671 13.0387L9.489 10.971L8.5125 11.529ZM11.3197 5.67747L11.1652 5.71047L11.3932 6.81222L11.5545 6.77772L11.3197 5.67747ZM6.4455 6.77772L6.6075 6.81222L6.8355 5.70972L6.681 5.67747L6.4455 6.77772ZM11.1652 5.71047C9.73712 6.00588 8.26363 6.00513 6.8355 5.70972L6.6075 6.81222C8.1858 7.13865 9.8142 7.13865 11.3925 6.81222L11.1652 5.71047ZM6.85875 14.4375C7.45725 14.4375 8.01 14.1165 8.30625 13.5975L7.329 13.0387C7.2818 13.122 7.21406 13.1912 7.1313 13.2393C7.04854 13.2874 6.95448 13.3127 6.85875 13.3125V14.4375ZM11.6475 12.5752C11.6792 12.6574 11.6903 12.746 11.6801 12.8335C11.6698 12.9209 11.6384 13.0046 11.5885 13.0772C11.5387 13.1498 11.4719 13.2091 11.394 13.2501C11.3161 13.2911 11.2293 13.3125 11.1412 13.3125V14.4375C11.4119 14.4375 11.6786 14.3717 11.9181 14.2456C12.1576 14.1196 12.3629 13.9371 12.5161 13.714C12.6693 13.4908 12.7659 13.2337 12.7975 12.9649C12.8291 12.696 12.794 12.4236 12.6968 12.171L11.6475 12.5752ZM11.655 8.14722C11.4885 8.20272 11.3115 8.25747 11.1675 8.34597L11.7585 9.30372C11.751 9.30747 11.757 9.30297 11.8005 9.28647C11.8463 9.26922 11.9078 9.24897 12.0105 9.21447L11.655 8.14722ZM11.7615 9.74022C11.7342 9.67145 11.709 9.60219 11.6842 9.53247C11.6693 9.48822 11.6692 9.48072 11.6707 9.48822L10.5562 9.64122C10.5787 9.80847 10.6493 9.98022 10.7122 10.1437L11.7615 9.74022ZM11.1675 8.34597C10.9511 8.47946 10.7781 8.67293 10.6696 8.90287C10.5611 9.13281 10.5217 9.38931 10.5562 9.64122L11.6707 9.48822C11.666 9.45227 11.6717 9.41571 11.6873 9.38297C11.7029 9.35022 11.7276 9.32269 11.7585 9.30372L11.1675 8.34597ZM13.6875 7.04622C13.6877 7.16941 13.6491 7.28953 13.577 7.38946C13.505 7.48939 13.4032 7.56402 13.2863 7.60272L13.641 8.66997C13.982 8.55665 14.2794 8.33879 14.4896 8.04731C14.6997 7.75583 14.8127 7.40556 14.8125 7.04622H13.6875ZM5.3025 12.171C5.20521 12.4236 5.17088 12.696 5.20249 12.9649C5.23409 13.2337 5.33068 13.4908 5.48389 13.714C5.63711 13.9371 5.84236 14.1196 6.0819 14.2456C6.32144 14.3717 6.58807 14.4375 6.85875 14.4375V13.3125C6.77069 13.3125 6.68395 13.2911 6.60602 13.2501C6.52809 13.2091 6.46131 13.1498 6.41147 13.0772C6.36162 13.0046 6.3302 12.9209 6.31993 12.8335C6.30965 12.746 6.32083 12.6574 6.3525 12.5752L5.3025 12.171ZM5.9895 9.21447C6.09225 9.24822 6.15375 9.26922 6.1995 9.28647C6.243 9.30297 6.24825 9.30747 6.2415 9.30372L6.8325 8.34597C6.6885 8.25747 6.5115 8.20272 6.345 8.14722L5.9895 9.21447ZM7.287 10.1445C7.35075 9.97947 7.4205 9.80847 7.44375 9.64122L6.32925 9.48822C6.33 9.48072 6.33 9.48822 6.31575 9.53247C6.29103 9.60219 6.26503 9.67145 6.23775 9.74022L7.287 10.1445ZM6.2415 9.30372C6.2724 9.32269 6.29714 9.35022 6.31271 9.38297C6.32829 9.41571 6.33403 9.45227 6.32925 9.48822L7.44375 9.64122C7.47827 9.38931 7.43888 9.13281 7.33037 8.90287C7.22186 8.67293 7.04889 8.47946 6.8325 8.34597L6.2415 9.30372ZM3.1875 7.04622C3.1875 7.78347 3.65925 8.43747 4.3575 8.66997L4.71375 7.60272C4.59679 7.56402 4.49503 7.48939 4.42298 7.38946C4.35093 7.28953 4.31227 7.16941 4.3125 7.04622H3.1875ZM4.3125 7.04622C4.3125 6.67272 4.6575 6.39372 5.022 6.47247L5.2575 5.37297C5.00794 5.31939 4.75031 5.32231 4.50203 5.38151C4.25375 5.44071 4.02185 5.5547 3.82332 5.71512C3.62479 5.87554 3.46465 6.07833 3.35464 6.30865C3.24463 6.53897 3.18752 6.79097 3.1875 7.04622H4.3125ZM9.6945 13.5975C9.84015 13.8528 10.0501 14.065 10.3043 14.2126C10.5585 14.3601 10.8473 14.4377 11.1412 14.4375V13.3125C10.9462 13.3125 10.767 13.2075 10.671 13.0387L9.6945 13.5975ZM14.8125 7.04622C14.8125 6.79105 14.7554 6.53913 14.6454 6.30888C14.5354 6.07863 14.3754 5.87588 14.1769 5.71547C13.9785 5.55506 13.7467 5.44106 13.4985 5.3818C13.2503 5.32254 12.9913 5.31952 12.7418 5.37297L12.9788 6.47247C13.0643 6.45412 13.1521 6.45514 13.2372 6.47546C13.3223 6.49577 13.4018 6.53487 13.4698 6.58988C13.5378 6.64489 13.5927 6.71442 13.6303 6.79338C13.668 6.87234 13.6875 6.95873 13.6875 7.04622H14.8125Z" fill="#919399"/>
<path d="M14.5905 10.875C15.7778 11.472 16.5 12.261 16.5 13.125C16.5 14.9887 13.1422 16.5 9 16.5C4.85775 16.5 1.5 14.9887 1.5 13.125C1.5 12.261 2.22225 11.472 3.4095 10.875" stroke="#919399" stroke-linecap="round"/>
</svg>
