<svg width="24" height="24" viewBox="0 0 24 24" fill="none" xmlns="http://www.w3.org/2000/svg">
<path d="M16 5H8C5.172 5 3.757 5 2.879 5.879C2 6.757 2 8.172 2 11V13C2 15.828 2 17.243 2.879 18.121C3.757 19 5.172 19 8 19H16C18.828 19 20.243 19 21.121 18.121C22 17.243 22 15.828 22 13V11C22 8.172 22 6.757 21.121 5.879C20.243 5 18.828 5 16 5Z" stroke="white" stroke-linecap="round" stroke-linejoin="round"/>
<path d="M18.5 12H18.51M5.5 12H5.51" stroke="white" stroke-linecap="round" stroke-linejoin="round"/>
<path d="M15 12C15 12.7956 14.6839 13.5587 14.1213 14.1213C13.5587 14.6839 12.7956 15 12 15C11.2044 15 10.4413 14.6839 9.87868 14.1213C9.31607 13.5587 9 12.7956 9 12C9 11.2044 9.31607 10.4413 9.87868 9.87868C10.4413 9.31607 11.2044 9 12 9C12.7956 9 13.5587 9.31607 14.1213 9.87868C14.6839 10.4413 15 11.2044 15 12Z" stroke="white" stroke-linecap="round" stroke-linejoin="round"/>
</svg>
