<svg width="16" height="16" viewBox="0 0 16 16" fill="none" xmlns="http://www.w3.org/2000/svg">
<path d="M5.33301 9.00002H10.6663M5.33301 5.66669H7.99967M4.06567 12.6667C3.19945 12.5814 2.54901 12.3209 2.11434 11.8854C1.33301 11.1047 1.33301 9.84735 1.33301 7.33335V7.00002C1.33301 4.48602 1.33301 3.22869 2.11434 2.44802C2.89567 1.66735 4.15234 1.66669 6.66634 1.66669H9.33301C11.847 1.66669 13.1043 1.66669 13.885 2.44802C14.6657 3.22935 14.6663 4.48602 14.6663 7.00002V7.33335C14.6663 9.84735 14.6663 11.1047 13.885 11.8854C13.1037 12.666 11.847 12.6667 9.33301 12.6667C8.95967 12.6747 8.66167 12.7034 8.36967 12.77C7.57034 12.954 6.83034 13.3634 6.09967 13.7194C5.05767 14.2274 4.53701 14.4814 4.21034 14.2434C3.58501 13.778 4.19634 12.3347 4.33301 11.6667" stroke="#919399" stroke-linecap="round" stroke-linejoin="round"/>
</svg>
