<svg width="18" height="18" viewBox="0 0 18 18" fill="none" xmlns="http://www.w3.org/2000/svg">
<path d="M1.5 4.5C1.5 3.0855 1.5 2.379 1.9395 1.9395C2.379 1.5 3.0855 1.5 4.5 1.5C5.9145 1.5 6.621 1.5 7.0605 1.9395C7.5 2.379 7.5 3.0855 7.5 4.5V6C7.5 7.4145 7.5 8.121 7.0605 8.5605C6.621 9 5.9145 9 4.5 9C3.0855 9 2.379 9 1.9395 8.5605C1.5 8.121 1.5 7.4145 1.5 6V4.5ZM1.5 14.25C1.5 13.551 1.5 13.2015 1.614 12.9263C1.68938 12.7441 1.79992 12.5787 1.93929 12.4393C2.07866 12.2999 2.24414 12.1894 2.42625 12.114C2.7015 12 3.051 12 3.75 12H5.25C5.949 12 6.2985 12 6.57375 12.114C6.75586 12.1894 6.92134 12.2999 7.06071 12.4393C7.20008 12.5787 7.31062 12.7441 7.386 12.9263C7.5 13.2015 7.5 13.551 7.5 14.25C7.5 14.949 7.5 15.2985 7.386 15.5737C7.31062 15.7559 7.20008 15.9213 7.06071 16.0607C6.92134 16.2001 6.75586 16.3106 6.57375 16.386C6.2985 16.5 5.949 16.5 5.25 16.5H3.75C3.051 16.5 2.7015 16.5 2.42625 16.386C2.24414 16.3106 2.07866 16.2001 1.93929 16.0607C1.79992 15.9213 1.68938 15.7559 1.614 15.5737C1.5 15.2985 1.5 14.949 1.5 14.25ZM10.5 12C10.5 10.5855 10.5 9.879 10.9395 9.4395C11.379 9 12.0855 9 13.5 9C14.9145 9 15.621 9 16.0605 9.4395C16.5 9.879 16.5 10.5855 16.5 12V13.5C16.5 14.9145 16.5 15.621 16.0605 16.0605C15.621 16.5 14.9145 16.5 13.5 16.5C12.0855 16.5 11.379 16.5 10.9395 16.0605C10.5 15.621 10.5 14.9145 10.5 13.5V12ZM10.5 3.75C10.5 3.051 10.5 2.7015 10.614 2.42625C10.6894 2.24414 10.7999 2.07866 10.9393 1.93929C11.0787 1.79992 11.2441 1.68938 11.4262 1.614C11.7015 1.5 12.051 1.5 12.75 1.5H14.25C14.949 1.5 15.2985 1.5 15.5737 1.614C15.7559 1.68938 15.9213 1.79992 16.0607 1.93929C16.2001 2.07866 16.3106 2.24414 16.386 2.42625C16.5 2.7015 16.5 3.051 16.5 3.75C16.5 4.449 16.5 4.7985 16.386 5.07375C16.3106 5.25586 16.2001 5.42134 16.0607 5.56071C15.9213 5.70008 15.7559 5.81062 15.5737 5.886C15.2985 6 14.949 6 14.25 6H12.75C12.051 6 11.7015 6 11.4262 5.886C11.2441 5.81062 11.0787 5.70008 10.9393 5.56071C10.7999 5.42134 10.6894 5.25586 10.614 5.07375C10.5 4.7985 10.5 4.449 10.5 3.75Z" stroke="#919399" stroke-linecap="round" stroke-linejoin="round"/>
</svg>
