<svg width="16" height="16" viewBox="0 0 16 16" fill="none" xmlns="http://www.w3.org/2000/svg">
<path d="M8 14H12M9.66667 3.66669L12.3333 6.33336M5.448 13.2187L13.2187 5.44803C13.5827 5.08403 13.764 4.90269 13.8613 4.70669C13.9525 4.52267 14 4.32007 14 4.11469C14 3.90932 13.9525 3.70671 13.8613 3.52269C13.764 3.32603 13.5827 3.14469 13.2187 2.78136C12.8553 2.41736 12.674 2.23603 12.4773 2.13869C12.2933 2.0475 12.0907 2.00006 11.8853 2.00006C11.68 2.00006 11.4774 2.0475 11.2933 2.13869C11.0973 2.23603 10.916 2.41736 10.552 2.78136L2.78133 10.552C2.39533 10.9374 2.20267 11.13 2.10133 11.3754C2 11.62 2 11.8927 2 12.438V14H3.562C4.10733 14 4.37933 14 4.62467 13.8987C4.86933 13.7974 5.062 13.604 5.448 13.2187Z" stroke="#2C2D2E" stroke-linecap="round" stroke-linejoin="round"/>
</svg>
