<svg width="24" height="24" viewBox="0 0 24 24" fill="none" xmlns="http://www.w3.org/2000/svg">
<path d="M12 20.9999H18M14.5 5.49995L18.5 9.49995M8.172 19.8279L19.828 8.17195C20.374 7.62595 20.646 7.35395 20.792 7.05995C20.9288 6.78391 20.9999 6.48001 20.9999 6.17195C20.9999 5.86388 20.9288 5.55998 20.792 5.28395C20.646 4.98895 20.374 4.71695 19.828 4.17195C19.283 3.62595 19.011 3.35395 18.716 3.20795C18.44 3.07117 18.1361 3 17.828 3C17.5199 3 17.216 3.07117 16.94 3.20795C16.646 3.35395 16.374 3.62595 15.828 4.17195L4.172 15.8279C3.593 16.4059 3.304 16.6949 3.152 17.0629C3 17.4299 3 17.8389 3 18.6569V20.9999H5.343C6.161 20.9999 6.569 20.9999 6.937 20.8479C7.304 20.6959 7.593 20.4059 8.172 19.8279Z" stroke="#2C2D2E" stroke-linecap="round" stroke-linejoin="round"/>
</svg>
