<svg width="27" height="29" viewBox="0 0 27 29" fill="none" xmlns="http://www.w3.org/2000/svg">
<path d="M0.75 11.75C0.75 6.56488 0.75 3.97162 2.3615 2.3615C3.973 0.751375 6.56488 0.75 11.75 0.75H14.5C19.6851 0.75 22.2784 0.75 23.8885 2.3615C25.4986 3.973 25.5 6.56488 25.5 11.75V17.25C25.5 22.4351 25.5 25.0284 23.8885 26.6385C22.277 28.2486 19.6851 28.25 14.5 28.25H11.75C6.56488 28.25 3.97162 28.25 2.3615 26.6385C0.751375 25.027 0.75 22.4351 0.75 17.25V11.75Z" stroke="#2787F5" stroke-width="1.5"/>
<path d="M7.625 11.75H18.625M7.625 17.25H14.5" stroke="#2787F5" stroke-width="1.5" stroke-linecap="round"/>
</svg>
