<svg width="18" height="18" viewBox="0 0 18 18" fill="none" xmlns="http://www.w3.org/2000/svg">
<path d="M3.73425 7.26375C2.24475 6.66825 1.5 6.3705 1.5 6C1.5 5.6295 2.24475 5.3325 3.73425 4.73625L5.84025 3.894C7.32975 3.29775 8.07525 3 9 3C9.92475 3 10.6702 3.29775 12.1597 3.894L14.2657 4.73625C15.7552 5.33175 16.5 5.6295 16.5 6C16.5 6.3705 15.7552 6.6675 14.2657 7.26375L12.1597 8.10675C10.6702 8.70225 9.92475 9 9 9C8.07525 9 7.32975 8.70225 5.84025 8.10675L3.73425 7.26375Z" stroke="white"/>
<path d="M16.5 9C16.5 9 15.7552 9.6675 14.2657 10.2638L12.1597 11.1068C10.6702 11.7023 9.92475 12 9 12C8.07525 12 7.32975 11.7023 5.84025 11.1068L3.735 10.2638C2.24475 9.66825 1.5 9 1.5 9M16.5 12C16.5 12 15.7552 12.6675 14.2657 13.2637L12.1597 14.1068C10.6702 14.7023 9.92475 15 9 15C8.07525 15 7.32975 14.7023 5.84025 14.106L3.735 13.2637C2.24475 12.6682 1.5 12 1.5 12" stroke="white" stroke-linecap="round"/>
</svg>
