<svg width="16" height="16" viewBox="0 0 16 16" fill="none" xmlns="http://www.w3.org/2000/svg">
<path d="M13 4V6.66667M13 8.66667V8.67333M10.3333 4.66667C10.3333 5.37391 10.0524 6.05219 9.55229 6.55229C9.05219 7.05238 8.37391 7.33333 7.66667 7.33333C6.95942 7.33333 6.28115 7.05238 5.78105 6.55229C5.28095 6.05219 5 5.37391 5 4.66667C5 3.95942 5.28095 3.28115 5.78105 2.78105C6.28115 2.28095 6.95942 2 7.66667 2C8.37391 2 9.05219 2.28095 9.55229 2.78105C10.0524 3.28115 10.3333 3.95942 10.3333 4.66667ZM9 9.33333H6.33333C5.44928 9.33333 4.60143 9.68452 3.97631 10.3096C3.35119 10.9348 3 11.7826 3 12.6667C3 13.0203 3.14048 13.3594 3.39052 13.6095C3.64057 13.8595 3.97971 14 4.33333 14H11C11.3536 14 11.6928 13.8595 11.9428 13.6095C12.1929 13.3594 12.3333 13.0203 12.3333 12.6667C12.3333 11.7826 11.9821 10.9348 11.357 10.3096C10.7319 9.68452 9.88406 9.33333 9 9.33333Z" stroke="#ED0A34" stroke-linecap="round" stroke-linejoin="round"/>
</svg>
