<svg width="24" height="24" viewBox="0 0 24 24" fill="none" xmlns="http://www.w3.org/2000/svg">
<path d="M4.5 6V10.265C4.5 13.44 4.5 15.028 5.477 16.014C6.453 17 8.024 17 11.167 17H12.834C15.976 17 17.547 17 18.524 16.014C19.5 15.027 19.5 13.44 19.5 10.265V6M4.5 6H19.5M4.5 6L5.221 4.462C5.781 3.268 6.061 2.672 6.627 2.336C7.194 2 7.92 2 9.375 2H14.625C16.079 2 16.806 2 17.373 2.336C17.94 2.672 18.22 3.268 18.779 4.462L19.5 6M10.5 9H13.5M12 19.5V22M12 19.5H7M12 19.5H17M7 19.5H4.5C3.83696 19.5 3.20107 19.7634 2.73223 20.2322C2.26339 20.7011 2 21.337 2 22M7 19.5V22M17 19.5H19.5C20.163 19.5 20.7989 19.7634 21.2678 20.2322C21.7366 20.7011 22 21.337 22 22M17 19.5V22" stroke="white" stroke-linecap="round" stroke-linejoin="round"/>
</svg>
