<svg width="16" height="16" viewBox="0 0 16 16" fill="none" xmlns="http://www.w3.org/2000/svg">
<path d="M2 6.66671C2 4.15271 2 2.89537 2.78133 2.11471C3.56267 1.33404 4.81933 1.33337 7.33333 1.33337H8.66667C11.1807 1.33337 12.438 1.33337 13.2187 2.11471C13.9993 2.89604 14 4.15271 14 6.66671V9.33337C14 11.8474 14 13.1047 13.2187 13.8854C12.4373 14.666 11.1807 14.6667 8.66667 14.6667H7.33333C4.81933 14.6667 3.562 14.6667 2.78133 13.8854C2.00067 13.104 2 11.8474 2 9.33337V6.66671Z" stroke="#2C2D2E"/>
<path d="M5.33325 6.66675H10.6666M5.33325 9.33341H8.66659" stroke="#2C2D2E" stroke-linecap="round"/>
</svg>
