<svg width="16" height="16" viewBox="0 0 16 16" fill="none" xmlns="http://www.w3.org/2000/svg">
<path d="M13.6666 4H2.33325M12.5553 5.66667L12.2486 10.2667C12.1306 12.036 12.0719 12.9207 11.4953 13.46C10.9186 13.9993 10.0313 14 8.25792 14H7.74192C5.96859 14 5.08125 14 4.50459 13.46C3.92792 12.9207 3.86859 12.036 3.75125 10.2667L3.44459 5.66667" stroke="#919399" stroke-linecap="round"/>
<path d="M4.33325 4H4.40659C4.67488 3.99314 4.93487 3.90548 5.15253 3.74847C5.3702 3.59147 5.53542 3.37243 5.62659 3.12L5.64925 3.05133L5.71392 2.85733C5.76925 2.69133 5.79725 2.60867 5.83392 2.538C5.90606 2.39959 6.00959 2.27999 6.13624 2.18877C6.26288 2.09755 6.40912 2.03724 6.56325 2.01267C6.64125 2 6.72859 2 6.90325 2H9.09659C9.27125 2 9.35859 2 9.43659 2.01267C9.59072 2.03724 9.73696 2.09755 9.8636 2.18877C9.99025 2.27999 10.0938 2.39959 10.1659 2.538C10.2026 2.60867 10.2306 2.69133 10.2859 2.85733L10.3506 3.05133C10.4351 3.33218 10.6098 3.57734 10.8477 3.74884C11.0856 3.92034 11.3734 4.00862 11.6666 4" stroke="#919399"/>
</svg>
