<svg width="18" height="18" viewBox="0 0 18 18" fill="none" xmlns="http://www.w3.org/2000/svg">
<path d="M12 3.75H6C3.879 3.75 2.81775 3.75 2.15925 4.40925C1.5 5.06775 1.5 6.129 1.5 8.25V9.75C1.5 11.871 1.5 12.9323 2.15925 13.5908C2.81775 14.25 3.879 14.25 6 14.25H12C14.121 14.25 15.1823 14.25 15.8408 13.5908C16.5 12.9323 16.5 11.871 16.5 9.75V8.25C16.5 6.129 16.5 5.06775 15.8408 4.40925C15.1823 3.75 14.121 3.75 12 3.75Z" stroke="#919399" stroke-linecap="round" stroke-linejoin="round"/>
<path d="M13.875 9H13.8825M4.125 9H4.1325" stroke="#919399" stroke-linecap="round" stroke-linejoin="round"/>
<path d="M11.25 9C11.25 9.59674 11.0129 10.169 10.591 10.591C10.169 11.0129 9.59674 11.25 9 11.25C8.40326 11.25 7.83097 11.0129 7.40901 10.591C6.98705 10.169 6.75 9.59674 6.75 9C6.75 8.40326 6.98705 7.83097 7.40901 7.40901C7.83097 6.98705 8.40326 6.75 9 6.75C9.59674 6.75 10.169 6.98705 10.591 7.40901C11.0129 7.83097 11.25 8.40326 11.25 9Z" stroke="#919399" stroke-linecap="round" stroke-linejoin="round"/>
</svg>
